<svg id="Layer_3" data-name="Layer 3" xmlns="http://www.w3.org/2000/svg" viewBox="0 0 605.27 219.41"><defs><style>.cls-1{fill:#ff8300;}.cls-2{fill:#fff;}</style></defs><polygon class="cls-1" points="71.12 22.64 71.12 0 0 0 0 219.41 71.12 219.41 71.12 196.77 22.64 196.77 22.64 22.64 71.12 22.64"/><polygon class="cls-1" points="534.15 0 534.15 22.64 582.63 22.64 582.63 196.77 534.15 196.77 534.15 219.41 605.27 219.41 605.27 0 534.15 0"/><path class="cls-2" d="M441.87,191.74a10.37,10.37,0,0,0,.62,3.68c1.25,3.36,5,4.07,8.22,4.07,2.81,0,7.11-.94,7.11-5.09,0-2.89-2.42-3.67-12-6.41-8.84-2.5-18.93-4.93-18.93-16.19,0-12.91,11-18.46,22.53-18.46,12.12,0,22.83,4.61,23.3,18.22H456.42a4.28,4.28,0,0,0-2-4.46,9,9,0,0,0-5.08-1.4c-2.35,0-6.18.62-6.18,3.75.31,4,8.29,4.85,16.19,7S475,182.36,475,192.6c0,14.55-13.37,19.24-25.81,19.24-6.34,0-24.4-2.26-24.56-20.1Z" transform="translate(-87.66 -105.26)"/><path class="cls-2" d="M498.42,169.92h8.29v9.54h-8.29v14.16c0,3.75.86,5.4,4.77,5.4a26.13,26.13,0,0,0,3.52-.24v11.73c-3.13,0-6.65.47-9.94.47-6.57,0-13.84-1-13.84-12.12v-19.4H476v-9.54h6.89V157.56h15.49Z" transform="translate(-87.66 -105.26)"/><path class="cls-2" d="M524.07,193.7c.39,4.61,3,7.9,7.9,7.9,2.5,0,5.24-.94,6.49-2.9h14.47c-3.13,8.76-11.65,12.83-20.88,12.83-13,0-22.76-7.66-22.76-21.2,0-11.81,8.6-21.43,21.43-21.43,16.11,0,23.07,9,23.07,24.8Zm14.86-8.06a6.67,6.67,0,0,0-6.81-6.8c-4.61,0-7.27,2.42-8,6.8Z" transform="translate(-87.66 -105.26)"/><path class="cls-2" d="M571.47,193.7c.39,4.61,3,7.9,7.9,7.9,2.5,0,5.24-.94,6.49-2.9h14.47c-3.13,8.76-11.66,12.83-20.89,12.83-13,0-22.76-7.66-22.76-21.2,0-11.81,8.61-21.43,21.44-21.43,16.11,0,23.07,9,23.07,24.8Zm14.86-8.06a6.67,6.67,0,0,0-6.81-6.8c-4.61,0-7.27,2.42-8,6.8Z" transform="translate(-87.66 -105.26)"/><path class="cls-2" d="M606.11,154.67H621.6v55.84H606.11Z" transform="translate(-87.66 -105.26)"/><path class="cls-2" d="M173.6,191.74a10.37,10.37,0,0,0,.62,3.68c1.25,3.36,5,4.07,8.22,4.07,2.81,0,7.11-.94,7.11-5.09,0-2.89-2.42-3.67-12-6.41-8.84-2.5-18.93-4.93-18.93-16.19,0-12.91,11-18.46,22.53-18.46,12.12,0,22.83,4.61,23.3,18.22H188.14a4.26,4.26,0,0,0-2-4.46,9,9,0,0,0-5.08-1.4c-2.35,0-6.18.62-6.18,3.75.31,4,8.29,4.85,16.19,7s15.72,5.87,15.72,16.11c0,14.55-13.37,19.24-25.81,19.24-6.34,0-24.4-2.26-24.56-20.1Z" transform="translate(-87.66 -105.26)"/><path class="cls-2" d="M254.08,210.51H239.14v-5.16H239c-2.89,4.07-7,6.18-13.22,6.18-7.27,0-13.92-4.46-13.92-13.77V169.92h15.49V191.2c0,4.69.55,8,5.08,8,2.66,0,6.18-1.33,6.18-7.82V169.92h15.49Z" transform="translate(-87.66 -105.26)"/><path class="cls-2" d="M262.52,169.92h14.86v6.49h.16c2.5-4.85,5.79-7.51,11.42-7.51a17.7,17.7,0,0,1,4.54.63v13.69a15.61,15.61,0,0,0-6.1-1c-6.1,0-9.39,3.6-9.39,12.28v16H262.52Z" transform="translate(-87.66 -105.26)"/><path class="cls-2" d="M297.25,169.92h14.86v6.49h.16c2.5-4.85,5.79-7.51,11.42-7.51a17.62,17.62,0,0,1,4.53.63v13.69a15.57,15.57,0,0,0-6.1-1c-6.1,0-9.38,3.6-9.38,12.28v16H297.25Z" transform="translate(-87.66 -105.26)"/><path class="cls-2" d="M343.63,193.7c.39,4.61,3.05,7.9,7.9,7.9,2.5,0,5.24-.94,6.49-2.9h14.47c-3.13,8.76-11.65,12.83-20.88,12.83-13,0-22.76-7.66-22.76-21.2,0-11.81,8.6-21.43,21.43-21.43,16.11,0,23.07,9,23.07,24.8Zm14.86-8.06a6.66,6.66,0,0,0-6.8-6.8c-4.62,0-7.28,2.42-8,6.8Z" transform="translate(-87.66 -105.26)"/><path class="cls-2" d="M406.36,207.38c-1.25,3.6-2.66,8.22-5.09,11.27-4.06,5.08-10.32,5-16.34,5h-7V211.3h3.6c1.56,0,3.59.15,4.69-.39.94-.47,1.48-1.26,1.48-3.06s-5.94-16.89-6.8-19.24L374,169.92h16.58l6.49,23.31h.16l6.57-23.31h16Z" transform="translate(-87.66 -105.26)"/><path class="cls-1" d="M174.86,228.51h7.21L197,267.22h-7.27L186.08,257H170.63L167,267.22h-7Zm-2.39,23.31h11.82l-5.8-16.64h-.16Z" transform="translate(-87.66 -105.26)"/><path class="cls-1" d="M201.63,228.51h18.49c8.46,0,12.8,3.9,12.8,10.46,0,7.43-5.15,9.33-6.4,9.76v.11c2.33.33,5.75,2.06,5.75,8.19,0,4.5.65,8.62,2.11,10.19h-7.26c-1-1.68-1-3.79-1-5.69,0-7.1-1.47-10.25-7.7-10.25h-10v15.94h-6.78Zm6.78,17.62h11.11c4.29,0,6.62-2.11,6.62-6.18,0-4.93-3.2-5.91-6.72-5.91h-11Z" transform="translate(-87.66 -105.26)"/><path class="cls-1" d="M266.9,240.82c-1.14-4.45-4-7.7-9.65-7.7-8.29,0-11.76,7.32-11.76,14.75s3.47,14.74,11.76,14.74c6,0,9.33-4.5,9.87-10.14h6.62c-.55,9.28-7.11,15.68-16.49,15.68-11.6,0-18.54-9.22-18.54-20.28s6.94-20.28,18.54-20.28c8.73,0,15.62,4.88,16.43,13.23Z" transform="translate(-87.66 -105.26)"/><path class="cls-1" d="M280.72,228.51h6.78v15.4h17.62v-15.4h6.78v38.71h-6.78V249.76H287.5v17.46h-6.78Z" transform="translate(-87.66 -105.26)"/><path class="cls-1" d="M321,228.51h6.77v38.71H321Z" transform="translate(-87.66 -105.26)"/><path class="cls-1" d="M333.35,228.51h31.34v5.85H352.38v32.86h-6.77V234.36H333.35Z" transform="translate(-87.66 -105.26)"/><path class="cls-1" d="M370.16,228.51H398v5.85H376.94V244.5h19.52V250H376.94v11.33h21.47v5.85H370.16Z" transform="translate(-87.66 -105.26)"/><path class="cls-1" d="M431.42,240.82c-1.14-4.45-4-7.7-9.65-7.7-8.3,0-11.77,7.32-11.77,14.75s3.47,14.74,11.77,14.74c6,0,9.32-4.5,9.87-10.14h6.61c-.54,9.28-7.1,15.68-16.48,15.68-11.61,0-18.55-9.22-18.55-20.28s6.94-20.28,18.55-20.28c8.73,0,15.61,4.88,16.43,13.23Z" transform="translate(-87.66 -105.26)"/><path class="cls-1" d="M441.71,228.51h31.34v5.85H460.74v32.86H454V234.36H441.71Z" transform="translate(-87.66 -105.26)"/><path class="cls-1" d="M478.08,228.51h6.78v22.56c0,5.2.33,11.22,9.11,11.22s9.11-6,9.11-11.22V228.51h6.78v24.78c0,9.92-6.35,14.86-15.89,14.86s-15.89-4.94-15.89-14.86Z" transform="translate(-87.66 -105.26)"/><path class="cls-1" d="M518.63,228.51h18.49c8.46,0,12.8,3.9,12.8,10.46,0,7.43-5.15,9.33-6.4,9.76v.11c2.33.33,5.75,2.06,5.75,8.19,0,4.5.65,8.62,2.11,10.19h-7.26c-1-1.68-1-3.79-1-5.69,0-7.1-1.47-10.25-7.7-10.25h-10v15.94h-6.78Zm6.78,17.62h11.11c4.29,0,6.62-2.11,6.62-6.18,0-4.93-3.2-5.91-6.72-5.91h-11Z" transform="translate(-87.66 -105.26)"/><path class="cls-1" d="M568.13,228.51h7.21l14.91,38.71H583L579.35,257H563.9l-3.64,10.24h-7Zm-2.39,23.31h11.82l-5.8-16.64h-.16Z" transform="translate(-87.66 -105.26)"/><path class="cls-1" d="M594.9,228.51h6.78v32.86h19.68v5.85H594.9Z" transform="translate(-87.66 -105.26)"/><path class="cls-2" d="M327.55,282.45a24,24,0,0,1,2.6-4.45h2.41l-.68,1.26a18.65,18.65,0,0,0-2,5.43,21.55,21.55,0,0,0-.36,4.07,19.08,19.08,0,0,0,1,6.32,28.65,28.65,0,0,0,2.07,4.38h-2.37l-.8-1.09a14.32,14.32,0,0,1-1.65-2.94,16.77,16.77,0,0,1-1.56-6.87A15.31,15.31,0,0,1,327.55,282.45Z" transform="translate(-87.66 -105.26)"/><path class="cls-2" d="M335.09,278.27h3.46v13.58h8.26v3H335.09Z" transform="translate(-87.66 -105.26)"/><path class="cls-2" d="M362.32,293.35a8.59,8.59,0,0,1-10.85,0c-1.68-1.58-2.51-3.85-2.51-6.83s.83-5.31,2.51-6.83a8.59,8.59,0,0,1,10.85,0q2.51,2.28,2.5,6.83C364.82,289.5,364,291.77,362.32,293.35Zm-2.16-2.51a8.34,8.34,0,0,0,0-8.62,3.94,3.94,0,0,0-3.26-1.53,4,4,0,0,0-3.28,1.52,8.18,8.18,0,0,0,0,8.63,4.3,4.3,0,0,0,6.54,0Z" transform="translate(-87.66 -105.26)"/><path class="cls-2" d="M367.84,278.27h3.63L378,289.81V278.27h3.22v16.55h-3.45l-6.74-11.74v11.74h-3.23Z" transform="translate(-87.66 -105.26)"/><path class="cls-2" d="M394.65,278.63a5.45,5.45,0,0,1,2.82,2.1,7.43,7.43,0,0,1,1.18,2.67,12.79,12.79,0,0,1,.31,2.74,11,11,0,0,1-1.32,5.59,6,6,0,0,1-5.56,3.09H385V278.27h7.13A8.45,8.45,0,0,1,394.65,278.63Zm-6.35,2.51V292h3.2a3.46,3.46,0,0,0,3.42-2.42,8.51,8.51,0,0,0,.53-3.15,7.72,7.72,0,0,0-.8-3.88c-.52-.91-1.58-1.36-3.15-1.36Z" transform="translate(-87.66 -105.26)"/><path class="cls-2" d="M414.74,293.35a8.59,8.59,0,0,1-10.85,0c-1.68-1.58-2.51-3.85-2.51-6.83s.83-5.31,2.51-6.83a8.59,8.59,0,0,1,10.85,0q2.5,2.28,2.5,6.83C417.24,289.5,416.41,291.77,414.74,293.35Zm-2.16-2.51a8.28,8.28,0,0,0,0-8.62,3.94,3.94,0,0,0-3.26-1.53,4,4,0,0,0-3.28,1.52,8.18,8.18,0,0,0,0,8.63,4.3,4.3,0,0,0,6.54,0Z" transform="translate(-87.66 -105.26)"/><path class="cls-2" d="M420.26,278.27h3.63l6.57,11.54V278.27h3.22v16.55h-3.45l-6.74-11.74v11.74h-3.23Z" transform="translate(-87.66 -105.26)"/><path class="cls-2" d="M440.91,282.45a15.31,15.31,0,0,1,1.31,6.11,16.77,16.77,0,0,1-1.56,6.87,14.32,14.32,0,0,1-1.65,2.94l-.79,1.09h-2.37a28.43,28.43,0,0,0,2.06-4.38,19.34,19.34,0,0,0,1-6.32,21.55,21.55,0,0,0-.36-4.07,18.92,18.92,0,0,0-2-5.43l-.68-1.26h2.41A24.44,24.44,0,0,1,440.91,282.45Z" transform="translate(-87.66 -105.26)"/></svg>