<svg id="Layer_1" data-name="Layer 1" xmlns="http://www.w3.org/2000/svg" viewBox="0 0 72 72"><defs><style>.cls-1{fill:#ff8300;}.cls-2{fill:#fff;}</style></defs><path class="cls-1" d="M36,72A36,36,0,1,0,0,36,36,36,0,0,0,36,72"/><path class="cls-2" d="M44.9,55.11H41.53a.89.89,0,0,1-.85-.91V52.28a.89.89,0,0,1,.86-.91H44.9a.89.89,0,0,1,.86.91V54.2a.88.88,0,0,1-.85.91m-7.56,0H34a.88.88,0,0,1-.85-.91V52.28a.88.88,0,0,1,.85-.91h3.37a.88.88,0,0,1,.85.91V54.2a.88.88,0,0,1-.86.91m-7.55,0H26.42a.88.88,0,0,1-.85-.91V52.28a.88.88,0,0,1,.85-.91h3.37a.88.88,0,0,1,.85.91V54.2a.88.88,0,0,1-.85.91m-3.37-6.42a.88.88,0,0,1-.85-.91V45.86a.88.88,0,0,1,.85-.91h3.37a.88.88,0,0,1,.85.91v1.92a.88.88,0,0,1-.85.91Zm-.85-7.33V39.44a.88.88,0,0,1,.85-.91h3.37a.88.88,0,0,1,.85.91v1.92a.88.88,0,0,1-.85.91H26.42a.88.88,0,0,1-.85-.91m-.3-7.68V17.15a1.11,1.11,0,0,1,1.11-1.1H45.14a1.11,1.11,0,0,1,1.11,1.1V33.68a1.11,1.11,0,0,1-1.11,1.1H26.39a1.12,1.12,0,0,1-1.12-1.1m20.49,5.76v1.92a.89.89,0,0,1-.86.91H41.54a.87.87,0,0,1-.85-.91V39.44a.88.88,0,0,1,.85-.91H44.9a.89.89,0,0,1,.86.91M34,42.27a.88.88,0,0,1-.85-.91V39.44a.88.88,0,0,1,.85-.91h3.36a.88.88,0,0,1,.86.91v1.92a.88.88,0,0,1-.86.91ZM34,45h3.36a.88.88,0,0,1,.86.91v1.92a.88.88,0,0,1-.86.91H34a.88.88,0,0,1-.85-.91V45.86A.88.88,0,0,1,34,45m11.78.91v1.92a.9.9,0,0,1-.86.91H41.54a.89.89,0,0,1-.86-.91V45.86a.88.88,0,0,1,.86-.91H44.9a.89.89,0,0,1,.86.91m4.09,9.55V15.83a4.42,4.42,0,0,0-4.41-4.41H26a4.42,4.42,0,0,0-4.41,4.41V55.41A4.42,4.42,0,0,0,26,59.82H45.66a4.23,4.23,0,0,0,4.19-4.41"/></svg>