<svg id="Layer_1" data-name="Layer 1" xmlns="http://www.w3.org/2000/svg" viewBox="0 0 72 72"><defs><style>.cls-1{fill:#ff8300;}.cls-2{fill:#fff;}</style></defs><path class="cls-1" d="M36,72A36,36,0,1,0,0,36,36,36,0,0,0,36,72"/><path class="cls-2" d="M32.42,43.9a3.58,3.58,0,0,1-2.85-1,5.37,5.37,0,0,1-.92-3.55,15.57,15.57,0,0,1,1.11-5.48,11.34,11.34,0,0,1,2.9-4.27,6.16,6.16,0,0,1,4.2-1.64,5,5,0,0,1,2.54.65,6.35,6.35,0,0,1,2.1,2.1L38.89,39.6Q36,43.91,32.42,43.9M47.1,25.12h-4l-.67,2.27a6.29,6.29,0,0,0-5.8-3.05,10.13,10.13,0,0,0-6,2,13.68,13.68,0,0,0-4.37,5.46,18.07,18.07,0,0,0-1.61,7.73,8.17,8.17,0,0,0,2,5.91,7,7,0,0,0,5.31,2.06,8.47,8.47,0,0,0,6.37-3.14,4.25,4.25,0,0,0,1.91,2.8,7.67,7.67,0,0,0,4.13,1,10.12,10.12,0,0,0,6.13-2,13.07,13.07,0,0,0,4.23-5.53,20.39,20.39,0,0,0,1.52-8.08,19.74,19.74,0,0,0-2.37-9.86,16,16,0,0,0-6.78-6.47,22.44,22.44,0,0,0-10.36-2.27,21.43,21.43,0,0,0-11.13,3,22.2,22.2,0,0,0-8.14,8.45,24.89,24.89,0,0,0-3,12.39A23.7,23.7,0,0,0,17,49.24a17.53,17.53,0,0,0,7.26,7.29A22.38,22.38,0,0,0,35,59a24.68,24.68,0,0,0,6.91-.92,40.55,40.55,0,0,0,6.71-2.7l-1.31-3.24a33.49,33.49,0,0,1-6.15,2.63,20.81,20.81,0,0,1-6.16.89c-5.5,0-9.67-1.61-12.48-4.85s-4.23-7.59-4.23-13.06a22,22,0,0,1,2.54-10.63,19,19,0,0,1,6.76-7.29,17.08,17.08,0,0,1,9.15-2.61c4.92,0,8.76,1.33,11.52,4s4.13,6.41,4.13,11.31a20.25,20.25,0,0,1-.87,6,10.85,10.85,0,0,1-2.59,4.52,5.63,5.63,0,0,1-4.13,1.71,3.79,3.79,0,0,1-2.05-.43,1.57,1.57,0,0,1-.65-1.4,7.78,7.78,0,0,1,.34-1.79Z"/></svg>