<svg width="225" height="194" viewBox="0 0 225 194" fill="none" xmlns="http://www.w3.org/2000/svg">
<path d="M115.7 184.45V153.85L142 138.55V169.15L115.7 184.45ZM82.8 138.55L109.1 153.85V184.45L82.8 169.15V138.55ZM172.6 106.05C171.7 104.45 169.7 103.95 168.1 104.85L135.9 123.55L114.1 110.85C113.1 110.25 111.8 110.25 110.8 110.85L88.1 124.05L56.1 105.45C54.5 104.55 52.5 105.05 51.6 106.65C50.7 108.25 51.2 110.25 52.8 111.15L81.6 127.85L77.9 129.95C76.9 130.55 76.3 131.65 76.3 132.75V170.95C76.3 172.15 76.9 173.25 77.9 173.75L110.8 192.85C111.8 193.45 113.1 193.45 114.1 192.85L147 173.75C148 173.15 148.6 172.05 148.6 170.95V132.75C148.6 131.55 148 130.55 147 129.95L142.5 127.35L171.5 110.55C173 109.65 173.5 107.65 172.6 106.05Z" fill="#70737A"/>
<path d="M131.7 64.95L115.8 74.15V43.55L142.1 28.25V49.15L148.7 52.95V22.55C148.7 21.35 148.1 20.35 147.1 19.75L114.2 0.550006C113.2 -0.0499939 111.9 -0.0499939 110.9 0.550006L78 19.75C77 20.35 76.4 21.45 76.4 22.55V51.85L83 48.05V28.25L109.3 43.55V74.15L92.5 64.35L86 68.15L111 82.65C112 83.25 113.3 83.25 114.3 82.65L138.3 68.65L131.7 64.95Z" fill="#70737A"/>
<path d="M218 114.05L191.7 129.35V98.75L218 83.45V114.05ZM222.9 74.85L190 55.75C189 55.15 187.7 55.15 186.7 55.75L164 68.95L132.2 50.55C130.6 49.65 128.6 50.15 127.7 51.75C126.8 53.35 127.3 55.35 128.9 56.25L157.4 72.75L153.7 74.85C152.7 75.45 152.1 76.55 152.1 77.65V106.95L158.7 103.15V83.45L185 98.75V129.35L168.2 119.55L161.7 123.35L186.7 137.85C187.2 138.15 187.8 138.35 188.3 138.25C188.9 138.25 189.5 138.05 190 137.85L222.9 118.75C223.9 118.15 224.5 117.05 224.5 115.95V77.75C224.5 76.55 223.9 75.45 222.9 74.85Z" fill="#FF8300"/>
<path d="M33.4 129.35L7 114.05V83.45L33.4 98.75V129.35ZM55.8 120.05L39.9 129.25V98.75L66.2 83.45V104.35L72.8 108.15V77.75C72.8 76.55 72.2 75.45 71.2 74.95L66.7 72.35L95.7 55.55C97.3 54.65 97.8 52.65 96.9 51.05C96 49.45 94 48.95 92.4 49.85L60.2 68.55L38.3 55.85C37.3 55.25 36 55.25 35 55.85L2.10001 74.95C1.10001 75.55 0.5 76.65 0.5 77.75V115.95C0.5 117.15 1.10001 118.25 2.10001 118.75L35 137.85C35.5 138.15 36.1 138.25 36.7 138.25C37.3 138.25 37.8 138.05 38.3 137.85L62.4 123.85L55.8 120.05Z" fill="#FF8300"/>
</svg>
