<svg width="166" height="166" viewBox="0 0 166 166" fill="none" xmlns="http://www.w3.org/2000/svg">
<path d="M83 158C41.6 158 8 124.4 8 83C8 41.6 41.6 8 83 8C124.4 8 158 41.6 158 83C158 124.4 124.4 158 83 158ZM83 0C37.2 0 0 37.2 0 83C0 128.8 37.2 166 83 166C128.8 166 166 128.8 166 83C165.9 37.2 128.8 0.1 83 0Z" fill="#70737A"/>
<path d="M108.1 36.6C106.4 36.6 104.8 37.4 103.7 38.8L72.6 80.9C72.3 81.4 72.1 81.8 71.9 82.3C71.8 82.6 71.7 82.9 71.6 83.2C71.6 83.5 71.6 83.9 71.6 84.2C71.6 84.5 71.6 84.9 71.7 85.2C71.8 85.5 71.9 85.9 72 86.2C72.1 86.5 72.3 86.8 72.5 87.1L93.9 112.6C95.8 114.9 99.2 115.2 101.5 113.3C103.8 111.4 104.1 108 102.1 105.7L84 83.9L112.5 45.2C114.3 42.8 113.8 39.4 111.4 37.6C110.5 37 109.3 36.6 108.1 36.6ZM88.4 146.1V139.2C88.4 136.2 86 133.8 83 133.8C80 133.8 77.6 136.2 77.6 139.2V146.1C46.9 143.3 22.6 119 19.9 88.3H26.7C29.7 88.3 32.1 85.9 32.1 82.9C32.1 79.9 29.7 77.5 26.7 77.5H19.9C22.7 46.9 46.9 22.6 77.6 19.8V26.6C77.7 29.6 80.3 31.9 83.2 31.8C86 31.7 88.3 29.4 88.4 26.6V19.8C119.1 22.5 143.5 46.8 146.2 77.5H139.2C136.2 77.5 133.8 79.9 133.8 82.9C133.8 85.9 136.2 88.3 139.2 88.3H146.2C143.5 119.1 119.1 143.5 88.4 146.1Z" fill="#FF8300"/>
</svg>
