<svg width="106" height="106" viewBox="0 0 106 106" fill="none" xmlns="http://www.w3.org/2000/svg">
<path d="M105.89 52.8802C105.89 81.8776 82.3817 105.384 53.3844 105.384C24.387 105.384 0.880371 81.8776 0.880371 52.8802C0.880371 23.8829 24.387 0.376218 53.3844 0.376218C82.3817 0.376218 105.89 23.8829 105.89 52.8802Z" fill="#FF8300"/>
<path d="M85.1646 71.7454V35.3121C85.1646 35.3121 85.1646 23.1654 73.0206 23.1654H36.5859C36.5859 23.1654 24.4419 23.1654 24.4419 35.3121V71.7454C24.4419 71.7454 24.4419 83.8894 36.5859 83.8894H73.0206C73.0206 83.8894 85.1646 83.8894 85.1646 71.7454ZM54.6819 72.4907C65.0952 72.4907 73.5352 64.0467 73.5352 53.6334C73.5352 52.0334 73.3152 50.4854 72.9392 48.9974H77.9446V72.4267C77.9446 76.6761 73.6939 76.6761 73.6939 76.6761H35.4392C31.1899 76.6761 31.1899 72.4267 31.1899 72.4267V48.9974H36.4272C36.0472 50.4854 35.8272 52.0334 35.8272 53.6334C35.8272 64.0467 44.2686 72.4907 54.6819 72.4907ZM66.3419 53.4521C66.3419 59.9081 61.1086 65.1441 54.6526 65.1441C48.1952 65.1441 42.9632 59.9081 42.9632 53.4521C42.9632 46.9947 48.1952 41.7601 54.6526 41.7601C61.1086 41.7601 66.3419 46.9947 66.3419 53.4521ZM78.7552 36.4974C78.7552 40.7481 74.5032 40.7481 74.5032 40.7481H71.4686C67.2179 40.7481 67.2179 36.4974 67.2179 36.4974V33.4614C67.2179 29.2121 71.4686 29.2121 71.4686 29.2121H74.5032C78.7552 29.2121 78.7552 33.4614 78.7552 33.4614V36.4974Z" fill="black"/>
</svg>
