<svg width="228" height="154" viewBox="0 0 228 154" fill="none" xmlns="http://www.w3.org/2000/svg">
<path d="M132.45 137.103C132.45 146.303 125.05 153.703 115.85 153.703C106.65 153.703 99.25 146.303 99.25 137.103C99.25 127.903 106.65 120.503 115.85 120.503C124.95 120.503 132.45 127.903 132.45 137.103ZM81.55 137.103C81.55 146.303 74.15 153.703 64.95 153.703C55.75 153.703 48.35 146.303 48.35 137.103C48.35 127.903 55.75 120.503 64.95 120.503C74.15 120.503 81.55 127.903 81.55 137.103ZM227.15 7.2031C227.15 11.0031 224.05 14.1031 220.25 14.1031H196.75L133.65 106.903C132.35 108.803 130.25 109.903 127.95 109.903H46.45C42.65 109.903 39.55 106.803 39.55 103.003C39.55 99.2031 42.65 96.1031 46.45 96.1031H124.25L187.25 3.3031C188.55 1.4031 190.65 0.303101 192.95 0.303101H220.15C223.95 0.303101 227.05 3.4031 227.15 7.2031Z" fill="#70737A"/>
<path d="M146.05 24.3031H7.64999C3.94999 24.3031 0.849976 27.3031 0.849976 31.1031C0.849976 34.8031 3.84999 37.9031 7.64999 37.9031H146.15C149.85 37.9031 152.95 34.9031 152.95 31.1031C152.85 27.3031 149.85 24.3031 146.05 24.3031ZM132.45 47.4031H22.55C18.85 47.3031 15.65 50.2031 15.55 53.9031C15.45 57.6031 18.35 60.8031 22.05 60.9031C22.25 60.9031 22.35 60.9031 22.55 60.9031H132.45C136.15 61.0031 139.35 58.1031 139.45 54.4031C139.55 50.7031 136.65 47.5031 132.95 47.4031C132.75 47.4031 132.65 47.4031 132.45 47.4031ZM117.25 70.8031H38.05C34.35 70.8031 31.25 73.8031 31.25 77.6031C31.25 81.3031 34.25 84.4031 38.05 84.4031H117.25C120.95 84.4031 124.05 81.4031 124.05 77.6031C124.05 73.8031 120.95 70.8031 117.25 70.8031Z" fill="#FF8300"/>
</svg>
