<svg width="259" height="226" viewBox="0 0 259 226" fill="none" xmlns="http://www.w3.org/2000/svg">
<path d="M111.4 72.8H144.4C146.1 72.7 147.6 71.5001 148 69.9001L155.5 33C155.8 31.3 154.9 29.6 153.4 28.8L130.6 17.9C128.9 17.2 127 17.2 125.2 17.9L102.4 28.8C100.9 29.6 100 31.3 100.3 33L107.8 69.9001C108.2 71.5001 109.7 72.7 111.4 72.8ZM123.2 138C123 138 122.9 138 122.7 138L95.5 174.7C93.4 177.8 89.1 178.6 86 176.5C82.9 174.4 82.1 170.1 84.2 167C84.3 166.8 84.4 166.7 84.5 166.5L108.8 133.7C100.9 128.7 96 120 96 110.6C96 110.5 96 110.4 96 110.3C96.1 106.5 99.2 103.5 103 103.6C106.8 103.7 109.8 106.8 109.7 110.6C109.7 110.7 109.7 110.7 109.7 110.8C109.7 115.8 112.5 120.4 117 122.7L119.2 119.8C122 115.7 127.6 114.7 131.7 117.5C132.4 118 133.1 118.6 133.7 119.3C135.7 116.9 136.8 113.8 136.8 110.7C136.8 107.4 132.8 103.7 129.3 100.5C124.8 96.3 120.1 91.9 120.1 85.7V83.2H111.5C104.9 83.1 99.3 78.5 97.9 72.1L90.4 35.2C89.2 28.9 92.3 22.5 98.1 19.6L120.9 8.70005C121.1 8.60005 121.2 8.60003 121.4 8.50003V7.70005C121.3 4.00005 124.1 0.900021 127.8 0.800021C131.5 0.700021 134.6 3.50005 134.7 7.20005C134.7 7.40004 134.7 7.50005 134.7 7.70005V8.50003C134.9 8.50003 135 8.60005 135.2 8.70005L158 19.6C163.8 22.4 166.9 28.8 165.7 35.1L158 72C156.6 78.5 150.9 83.1 144.3 83.2H133.6V85.3C134.2 86.4 136.7 88.8001 138.4 90.4001C143.4 95.1001 150.3 101.4 150.3 110.7C150.4 125.8 138.3 137.9 123.2 138ZM166 176.2C162.9 178.4 158.6 177.7 156.4 174.6L133.2 142.2C137.7 141 141.8 138.6 145.2 135.4L167.5 166.7C169.8 169.7 169.1 174 166 176.2Z" fill="#70737A"/>
<path d="M4.79999 190H253.7C256.4 190 258.5 192.1 258.5 194.8V221.2C258.5 223.9 256.4 226 253.7 226H4.79999C2.09999 226 0 223.9 0 221.2V194.8C0 192.1 2.09999 190 4.79999 190Z" fill="#FF8300"/>
</svg>
