<svg width="106" height="106" viewBox="0 0 106 106" fill="none" xmlns="http://www.w3.org/2000/svg">
<path d="M105.097 53.2564C105.097 82.2538 81.5904 105.76 52.593 105.76C23.5957 105.76 0.0890503 82.2538 0.0890503 53.2564C0.0890503 24.2591 23.5957 0.752441 52.593 0.752441C81.5904 0.752441 105.097 24.2591 105.097 53.2564Z" fill="#FF8300"/>
<path d="M71.8744 68.1209L56.569 53.8489V18.2543C56.569 16.0449 54.7784 14.2543 52.569 14.2543C50.3597 14.2543 48.569 16.0449 48.569 18.2543V55.5876C48.569 55.6116 48.5757 55.6329 48.5757 55.6556C48.5784 55.8076 48.601 55.9569 48.621 56.1076C48.6357 56.2196 48.6424 56.3329 48.665 56.4423C48.6944 56.5743 48.7437 56.6996 48.785 56.8276C48.8237 56.9463 48.8544 57.0689 48.9037 57.1809C48.9517 57.2943 49.0197 57.3983 49.0797 57.5063C49.145 57.6263 49.205 57.7489 49.2824 57.8609C49.3437 57.9503 49.4224 58.0303 49.493 58.1156C49.5904 58.2343 49.6864 58.3556 49.797 58.4623C49.813 58.4783 49.8237 58.4969 49.841 58.5129L66.4184 73.9716C68.0344 75.4783 70.565 75.3903 72.0717 73.7743C73.5784 72.1583 73.4904 69.6276 71.8744 68.1209Z" fill="black"/>
</svg>
