<svg width="106" height="106" viewBox="0 0 106 106" fill="none" xmlns="http://www.w3.org/2000/svg">
<path d="M105.32 53.2564C105.32 82.2538 81.8132 105.76 52.8159 105.76C23.8186 105.76 0.31189 82.2538 0.31189 53.2564C0.31189 24.2591 23.8186 0.752438 52.8159 0.752438C81.8132 0.752438 105.32 24.2591 105.32 53.2564Z" fill="#FF8300"/>
<path d="M83.8617 53.7096C83.8617 42.895 77.7644 37.8683 70.015 37.8683C63.763 37.8683 59.8457 41.2883 59.1204 43.687V38.2043H46.863C47.019 41.115 46.863 73.1296 46.863 73.1296H59.1204V54.2283C59.1204 53.1816 59.0697 52.1323 59.3884 51.3803C60.2324 49.2776 62.0417 47.0977 65.295 47.0977C69.5564 47.0977 71.4937 50.3243 71.4937 55.0603V73.1296H83.8617V53.7096ZM34.467 33.8363C38.5697 33.8363 41.1257 31.1563 41.1257 27.775C41.0497 24.327 38.5697 21.7203 34.547 21.7203C30.5177 21.7203 27.8804 24.335 27.8804 27.7816C27.8804 31.1643 30.4404 33.8363 34.3897 33.8363H34.467ZM40.2044 73.131H29.2857V38.2043H40.2044V73.131Z" fill="black"/>
</svg>
