<svg width="106" height="106" viewBox="0 0 106 106" fill="none" xmlns="http://www.w3.org/2000/svg">
<path d="M105.597 52.8316C105.597 81.8289 82.0907 105.336 53.0934 105.336C24.096 105.336 0.589355 81.8289 0.589355 52.8316C0.589355 23.8342 24.096 0.327573 53.0934 0.327573C82.0907 0.327573 105.597 23.8342 105.597 52.8316Z" fill="#FF8300"/>
<path d="M78.4209 41.4573C78.4436 41.9613 78.4542 42.468 78.4542 42.9773C78.4542 58.488 66.6476 76.376 45.0556 76.376C38.4262 76.376 32.2556 74.432 27.0596 71.1013C27.9782 71.212 28.9156 71.2653 29.8609 71.2653C35.3609 71.2653 40.4209 69.3893 44.4396 66.24C39.3049 66.148 34.9662 62.752 33.4742 58.0893C34.1902 58.224 34.9276 58.3 35.6836 58.3C36.7529 58.3 37.7902 58.156 38.7756 57.888C33.4036 56.8093 29.3582 52.064 29.3582 46.376C29.3582 46.3266 29.3582 46.2773 29.3609 46.2293C30.9409 47.108 32.7529 47.6346 34.6769 47.6973C31.5262 45.592 29.4556 41.9973 29.4556 37.9266C29.4556 35.7733 30.0342 33.7586 31.0436 32.0253C36.8342 39.1266 45.4836 43.8 55.2396 44.2906C55.0396 43.4293 54.9356 42.5346 54.9356 41.6146C54.9356 35.132 60.1902 29.876 66.6769 29.876C70.0502 29.876 73.1022 31.3013 75.2449 33.584C77.9169 33.0573 80.4302 32.08 82.6982 30.7333C81.8209 33.4746 79.9596 35.776 77.5356 37.228C79.9102 36.9453 82.1729 36.3146 84.2809 35.3786C82.7049 37.7346 80.7156 39.804 78.4209 41.4573Z" fill="black"/>
</svg>
