<svg width="145" height="165" viewBox="0 0 145 165" fill="none" xmlns="http://www.w3.org/2000/svg">
<path d="M1.60964 12C-0.290356 8.6 0.109693 4.3 3.90969 1.8C5.30969 0.799999 7.10972 0.299999 8.80972 0.299999C11.1097 0.299999 13.4096 1.2 15.1096 2.9C23.0096 10.6 48.8097 36.7 70.9097 54.7C83.3097 64.8 100.31 87.4 102.71 103.5L86.8097 116.9C69.6097 108.4 54.3097 88.7 46.3097 75.4C27.9097 44.9 6.10964 20.2 1.60964 12Z" fill="#FF8300"/>
<path d="M94.2386 121.2C94.3386 120.4 94.6385 119.7 95.0385 119L105.539 110.2C105.639 110.2 105.639 110.1 105.739 110.1C110.739 108.8 115.939 108.8 121.039 109.9C127.039 111.2 137.739 115.3 139.939 138.8C141.939 160.5 145.939 160.2 143.039 163.1C142.339 163.8 141.439 164.2 140.439 164.2C137.339 164.2 131.339 161.1 114.339 154.3C89.5386 144.5 93.8386 124.9 94.2386 121.2Z" fill="#70737A"/>
</svg>
