<svg width="159" height="156" viewBox="0 0 159 156" fill="none" xmlns="http://www.w3.org/2000/svg">
<path d="M11 43.5C4.9 43.4 0 38.5 0 32.4V11.4C0 5.3 4.9 0.300003 11 0.300003H72C78.1 0.400003 83 5.3 83 11.4V32.4C83 38.5 78.1 43.5 72 43.5H11Z" fill="#70737A"/>
<path d="M104.4 98.9C110.5 98.9 115.4 93.9 115.4 87.8V66.8C115.4 60.7 110.5 55.7 104.4 55.7H12C5.9 55.7 1 60.7 1 66.8V87.8C1 93.9 5.9 98.9 12 98.9H104.4Z" fill="#FF8300"/>
<path d="M148 155.7C154.1 155.6 159 150.7 159 144.6V123.6C159 117.5 154.1 112.5 148 112.5H11C4.9 112.5 0 117.5 0 123.6V144.6C0 150.7 4.9 155.7 11 155.7H148Z" fill="#70737A"/>
</svg>
