<svg width="199" height="179" viewBox="0 0 199 179" fill="none" xmlns="http://www.w3.org/2000/svg">
<path d="M99.5 102.05C92.6 102.05 86.9 96.45 86.9 89.55C86.9 82.65 92.5 76.95 99.4 76.95C106.3 76.95 112 82.55 112 89.45C112 96.45 106.4 102.05 99.5 102.05C99.5 102.15 99.5 102.15 99.5 102.05ZM165.8 99.65L104 46.65C101.4 44.55 97.6 44.55 94.9 46.65L33.1 99.65C30.4 102.25 28.8 105.75 28.6 109.55V172.45C28.6 175.75 31.3 178.45 34.6 178.45H75.4C78.7 178.45 81.4 175.75 81.4 172.45V129.05C81.4 125.75 84.1 123.05 87.4 123.05H112.8C116.1 123.05 118.8 125.75 118.8 129.05V172.45C118.8 175.75 121.5 178.45 124.8 178.45H164.5C167.8 178.45 170.5 175.75 170.5 172.45V109.55C170.3 105.85 168.7 102.25 166 99.65" fill="#FF8300"/>
<path d="M20.3 96.65L99.5 28.75L178.7 96.65C183.6 101.15 191.3 100.75 195.8 95.85C200.3 90.95 199.9 83.25 195 78.75L107.6 3.45C103 -0.750001 96 -0.750001 91.4 3.45L4.00001 78.75C-0.899989 83.25 -1.29998 90.85 3.20002 95.85C5.50002 98.45 14.6 102.25 20.3 96.65ZM170.8 12.75V45.85L143.5 22.35V12.75C143.5 9.45 146.2 6.75 149.5 6.75H164.8C168.2 6.75 170.9 9.45 170.8 12.75Z" fill="#70737A"/>
</svg>
