<svg width="170" height="180" viewBox="0 0 170 180" fill="none" xmlns="http://www.w3.org/2000/svg">
<path d="M48.2 90.4C43.4 90.4 39.1 87.1 38 82.4C40.4 85.7 45 86.5 48.4 84.1C51.7 81.7 52.5 77.1 50.1 73.7C48.7 71.7 46.4 70.6 44 70.6C43.7 70.6 43.3 70.7 43 70.7C44.6 69.8 46.4 69.3 48.2 69.3C54 69.5 58.6 74.4 58.4 80.2C58.3 85.8 53.8 90.3 48.2 90.4ZM161 97.6H155.3C152.3 79.2 140.5 63.4 124.1 53.7C113 68.8 91.8 72.1 76.7 61C71 56.8 66.8 51 64.6 44.4L47.5 31.4C45.4 29.8 43.5 30.7 43.2 33.4L40.6 58.5C31.7 65.2 24.8 74.2 20.4 84.4H9C4.5 84.4 0.900024 88 0.900024 92.5V117.2C0.900024 121.7 4.6 125.3 9 125.3H18.6C23.3 139.7 33.5 151.9 46.9 160V175.7C46.9 177.7 48.5 179.3 50.6 179.4H68.5C70.5 179.4 72.1 177.8 72.2 175.7V169.5C81.3 171.2 90.7 171.2 99.8 169.5V175.7C99.8 177.7 101.4 179.3 103.5 179.4H121.4C123.4 179.4 125 177.8 125.1 175.7V160C142 149.7 153.7 133 156 113.7H161.2C165.7 113.5 169.2 109.8 169 105.3C168.7 101.2 165.3 97.7 161 97.6Z" fill="#FF8300"/>
<path d="M99.5 56.5C115 56.5 127.5 44 127.5 28.5C127.5 13 115 0.500031 99.5 0.500031C84 0.500031 71.5 13 71.5 28.5C71.5 44 84 56.5 99.5 56.5Z" fill="#70737A"/>
<path d="M99.5 56.5C114.964 56.5 127.5 43.964 127.5 28.5C127.5 13.0361 114.964 0.500031 99.5 0.500031C84.036 0.500031 71.5 13.0361 71.5 28.5C71.5 43.964 84.036 56.5 99.5 56.5Z" stroke="#878787"/>
</svg>
