<svg width="155" height="170" viewBox="0 0 155 170" fill="none" xmlns="http://www.w3.org/2000/svg">
<path d="M142.6 82.7C142.6 84.4 141.3 85.7 139.6 85.7H129.7C128 85.7 126.7 84.4 126.7 82.7V78.9001C126.7 77.2001 128 75.9001 129.7 75.9001H139.6C141.3 75.9001 142.6 77.2001 142.6 78.9001V82.7ZM142.6 100.3C142.6 102 141.3 103.3 139.6 103.3H129.7C128 103.3 126.7 102 126.7 100.3V96.5C126.7 94.8 128 93.5 129.7 93.5H139.6C141.3 93.5 142.6 94.8 142.6 96.5V100.3ZM142.6 117.9C142.6 119.6 141.3 120.9 139.6 120.9H129.7C128 120.9 126.7 119.6 126.7 117.9V114.1C126.7 112.4 128 111.1 129.7 111.1H139.6C141.3 111.1 142.6 112.4 142.6 114.1V117.9ZM142.6 135.5C142.6 137.2 141.3 138.5 139.6 138.5H129.7C128 138.5 126.7 137.2 126.7 135.5V131.7C126.7 130 128 128.7 129.7 128.7H139.6C141.3 128.7 142.6 130 142.6 131.7V135.5ZM116.5 82.7C116.5 84.4 115.2 85.7 113.5 85.7H103.6C101.9 85.7 100.6 84.4 100.6 82.7V78.9001C100.6 77.2001 101.9 75.9001 103.6 75.9001H113.5C115.2 75.9001 116.5 77.2001 116.5 78.9001V82.7ZM116.5 100.3C116.5 102 115.2 103.3 113.5 103.3H103.6C101.9 103.3 100.6 102 100.6 100.3V96.5C100.6 94.8 101.9 93.5 103.6 93.5H113.5C115.2 93.5 116.5 94.8 116.5 96.5V100.3ZM116.5 117.9C116.5 119.6 115.2 120.9 113.5 120.9H103.6C101.9 120.9 100.6 119.6 100.6 117.9V114.1C100.6 112.4 101.9 111.1 103.6 111.1H113.5C115.2 111.1 116.5 112.4 116.5 114.1V117.9ZM116.5 135.5C116.5 137.2 115.2 138.5 113.5 138.5H103.6C101.9 138.5 100.6 137.2 100.6 135.5V131.7C100.6 130 101.9 128.7 103.6 128.7H113.5C115.2 128.7 116.5 130 116.5 131.7V135.5ZM116.5 153.1C116.5 154.8 115.2 156.1 113.5 156.1H103.6C101.9 156.1 100.6 154.8 100.6 153.1V149.3C100.6 147.6 101.9 146.3 103.6 146.3H113.5C115.2 146.3 116.5 147.6 116.5 149.3V153.1ZM147.5 63.2H95.7C91.6 63.2 88.3 66.5 88.3 70.6V162.2C88.3 166.3 91.6 169.6 95.7 169.6H128V150C128 148.3 129.4 146.9 131.1 146.9H140.8C142.5 146.9 143.9 148.3 143.9 150V169.6H147.5C151.6 169.6 154.9 166.3 154.9 162.2V70.6C154.9 66.6 151.6 63.3 147.5 63.2Z" fill="#70737A"/>
<path d="M55.1 43.1H21.4C19.1 43.3 17 41.6 16.8 39.2C16.6 36.8 18.3 34.8 20.7 34.6C20.9 34.6 21.2 34.6 21.4 34.6H55C57.3 34.4 59.4 36.1 59.6 38.5C59.8 40.9 58.1 42.9 55.7 43.1C55.6 43.1 55.3 43.1 55.1 43.1ZM55.1 63.7H21.5C19.2 63.9 17.1 62.2 16.9 59.8C16.7 57.5 18.4 55.4 20.8 55.2C21 55.2 21.3 55.2 21.5 55.2H55.1C57.4 55 59.5 56.7 59.7 59.1C59.9 61.4 58.2 63.5 55.8 63.7C55.6 63.7 55.3 63.7 55.1 63.7ZM55.1 84.2H21.5C19.2 84.4 17.1 82.7 16.9 80.3C16.7 78 18.4 75.9 20.8 75.7C21 75.7 21.3 75.7 21.5 75.7H55.1C57.4 75.5 59.5 77.2 59.7 79.6C59.9 81.9 58.2 84 55.8 84.2C55.6 84.3 55.3 84.3 55.1 84.2ZM55.1 104.8H21.5C19.2 105 17.1 103.3 16.9 100.9C16.7 98.6001 18.4 96.5 20.8 96.3C21 96.3 21.3 96.3 21.5 96.3H55.1C57.4 96.1 59.5 97.8 59.7 100.2C59.9 102.5 58.2 104.6 55.8 104.8C55.6 104.8 55.3 104.8 55.1 104.8ZM55.1 125.4H21.5C19.2 125.6 17.2 123.8 17 121.5C16.8 119.2 18.6 117.2 20.9 117C21.1 117 21.3 117 21.5 117H55.1C57.4 116.8 59.4 118.6 59.6 120.9C59.8 123.2 58 125.2 55.7 125.4C55.5 125.4 55.3 125.4 55.1 125.4ZM34.3 0.500031H31C25 0.500031 20.2 5.30002 20.2 11.3V13.1C15.2 14 11.5 18.3 11.4 23.4H11.3C5.3 23.4 0.5 28.2 0.5 34.2V161.3C0.5 165.4 3.8 168.7 7.9 168.7H21.5C21.7 168.7 21.8 168.8 22 168.8H29V143.1C29 142.4 29.5 141.9 30.2 141.9H46.8C47.5 141.9 48 142.4 48 143.1V168.8H54.8C55 168.8 55.1 168.8 55.3 168.7H68.9C73 168.7 76.3 165.4 76.3 161.3V34.2C76.3 28.2 71.5 23.4 65.5 23.4H65.4C65.3 18.3 61.6 14 56.6 13.1V11.3C56.6 5.30002 51.8 0.500031 45.8 0.500031H42.5" fill="#FF8300"/>
</svg>
