<?xml version="1.0" encoding="utf-8"?>
<!-- Generator: Adobe Illustrator 25.2.1, SVG Export Plug-In . SVG Version: 6.00 Build 0)  -->
<svg version="1.1" id="Layer_1" xmlns="http://www.w3.org/2000/svg" xmlns:xlink="http://www.w3.org/1999/xlink" x="0px" y="0px"
	 viewBox="0 0 502.4 133.5" style="enable-background:new 0 0 502.4 133.5;" xml:space="preserve">
<style type="text/css">
	.st0{fill:#FFFFFF;}
	.st1{fill:#FF8300;}
</style>
<g id="ART">
	<path class="st0" d="M66.5,72.3c0,1,0.2,1.9,0.5,2.8c1,2.6,3.9,3.1,6.4,3.1c2.2,0,5.5-0.7,5.5-3.9c0-2.2-1.9-2.9-9.3-5
		C62.8,67.4,55,65.5,55,56.8c0-10,8.5-14.3,17.4-14.3c9.4,0,17.7,3.6,18,14.1H77.7c0.2-1.4-0.4-2.7-1.6-3.5
		c-1.2-0.7-2.5-1.1-3.9-1.1c-1.8,0-4.8,0.5-4.8,2.9c0.2,3.1,6.4,3.8,12.5,5.4S92.1,65,92.1,72.9c0,11.2-10.4,14.9-20,14.9
		c-4.9,0-18.9-1.8-19-15.5H66.5z"/>
	<path class="st0" d="M128.7,86.8h-11.6v-4H117c-2.2,3.1-5.4,4.8-10.2,4.8C101.2,87.6,96,84.1,96,77V55.4h12v16.5
		c0,3.6,0.4,6.2,3.9,6.2c2.1,0,4.8-1,4.8-6V55.4h12L128.7,86.8z"/>
	<path class="st0" d="M135.3,55.4h11.5v5h0.1c1.9-3.8,4.5-5.8,8.8-5.8c1.2,0,2.4,0.2,3.5,0.5v10.6c-1.5-0.6-3.1-0.8-4.7-0.8
		c-4.7,0-7.3,2.8-7.3,9.5v12.4h-12L135.3,55.4z"/>
	<path class="st0" d="M162.1,55.4h11.5v5h0.1c1.9-3.8,4.5-5.8,8.8-5.8c1.2,0,2.4,0.2,3.5,0.5v10.6c-1.5-0.6-3.1-0.8-4.7-0.8
		c-4.7,0-7.3,2.8-7.3,9.5v12.4h-12L162.1,55.4z"/>
	<path class="st0" d="M198,73.8c0.3,3.6,2.4,6.1,6.1,6.1c1.9,0,4-0.7,5-2.2h11.3c-2.4,6.8-9,9.9-16.2,9.9c-10,0-17.6-5.9-17.6-16.4
		c0-9.1,6.6-16.6,16.6-16.6c12.5,0,17.9,7,17.9,19.2H198z M209.5,67.6c0.1-2.8-2.2-5.2-5.1-5.3c-0.1,0-0.1,0-0.2,0
		c-3.6,0-5.6,1.9-6.2,5.3H209.5z"/>
	<path class="st0" d="M246.5,84.4c-1,2.8-2.1,6.4-3.9,8.7c-3.1,3.9-8,3.9-12.6,3.9h-5.4v-9.6h2.8c1.2,0,2.8,0.1,3.6-0.3
		s1.1-1,1.1-2.4s-4.6-13.1-5.3-14.9l-5.3-14.5h12.8l5,18h0.1l5.1-18h12.4L246.5,84.4z"/>
	<path class="st1" d="M274,72.3c0,1,0.1,1.9,0.5,2.8c1,2.6,3.9,3.1,6.4,3.1c2.2,0,5.5-0.7,5.5-3.9c0-2.2-1.9-2.9-9.3-5
		c-6.8-1.9-14.6-3.8-14.6-12.5c0-10,8.5-14.3,17.4-14.3c9.4,0,17.7,3.6,18,14.1h-12.6c0.3-1.4-0.4-2.7-1.6-3.5
		c-1.2-0.7-2.5-1.1-3.9-1.1c-1.8,0-4.8,0.5-4.8,2.9c0.2,3.1,6.4,3.8,12.5,5.4s12.2,4.5,12.2,12.5c0,11.2-10.4,14.9-20,14.9
		c-4.9,0-18.9-1.8-19-15.5L274,72.3z"/>
	<path class="st1" d="M317.7,55.4h6.4v7.4h-6.4v10.9c0,2.9,0.7,4.2,3.7,4.2c0.9,0,1.8-0.1,2.7-0.2v9.1c-2.4,0-5.1,0.4-7.7,0.4
		c-5.1,0-10.7-0.8-10.7-9.4v-15h-5.4v-7.4h5.3v-9.6h12L317.7,55.4z"/>
	<path class="st1" d="M337.6,73.8c0.3,3.6,2.4,6.1,6.1,6.1c1.9,0,4.1-0.7,5-2.2h11.2c-2.4,6.8-9,9.9-16.2,9.9
		c-10,0-17.6-5.9-17.6-16.4c0-9.1,6.6-16.6,16.6-16.6c12.5,0,17.8,7,17.8,19.2H337.6z M349.1,67.6c0.1-2.8-2.2-5.2-5.1-5.3
		c-0.1,0-0.1,0-0.2,0c-3.6,0-5.6,1.9-6.2,5.3H349.1z"/>
	<path class="st1" d="M374.2,73.8c0.3,3.6,2.3,6.1,6.1,6.1c1.9,0,4-0.7,5-2.2h11.2c-2.4,6.8-9,9.9-16.2,9.9
		c-10,0-17.6-5.9-17.6-16.4c0-9.1,6.7-16.6,16.6-16.6c12.5,0,17.8,7,17.8,19.2H374.2z M385.7,67.6c0.1-2.8-2.2-5.2-5-5.3
		c-0.1,0-0.1,0-0.2,0c-3.6,0-5.6,1.9-6.2,5.3H385.7z"/>
	<path class="st1" d="M401,43.6h12v43.2h-12V43.6z"/>
	<path class="st1" d="M437,64.6c-0.1-1-0.6-1.8-1.4-2.4c-0.8-0.6-1.7-0.9-2.7-0.9c-1.7,0-3.6,0.4-3.6,2.4c0,0.9,0.7,1.3,1.4,1.6
		c2,0.9,6.5,1.1,10.5,2.4s7.5,3.6,7.5,8.8c0,8.7-8.3,11.1-16,11.1c-7.4,0-15.5-3-15.7-11.1h11.4c0.1,1.1,0.6,2.1,1.5,2.8
		c0.9,0.7,2.1,1,3.2,0.9c1.6,0,4-0.6,4-2.4s-1-2.4-6.6-3.3c-9.1-1.6-12.8-4.5-12.8-9.9c0-7.9,8.5-10,14.8-10
		c6.8,0,14.9,1.9,15.2,9.9L437,64.6z"/>
	<polygon class="st1" points="55,17.5 55,0 0,0 0,133.5 55,133.5 55,116 17.5,116 17.5,17.5 	"/>
	<polyline class="st1" points="447.4,0 447.4,17.5 484.9,17.5 484.9,116 447.4,116 447.4,133.5 502.4,133.5 502.4,0 	"/>
</g>
</svg>
