<svg id="ART" xmlns="http://www.w3.org/2000/svg" viewBox="0 0 467.44 169.72"><defs><style>.cls-1{fill:#ff8300;}.cls-2{fill:#fff;}</style></defs><path class="cls-1" d="M171.08,117.92H158.23V113.6h30.83v4.32H176.21v34.24h-5.13Z" transform="translate(-14.17 -14.17)"/><path class="cls-1" d="M187.44,124.24h4.32v5.89h.11c2.21-4.49,5.29-6.7,10.26-6.54v4.86c-7.4,0-10.1,4.21-10.1,11.29v12.42h-4.59Z" transform="translate(-14.17 -14.17)"/><path class="cls-1" d="M230.31,152.05a6.13,6.13,0,0,1-3.29.76c-2.38,0-3.89-1.3-3.89-4.32a12.39,12.39,0,0,1-9.83,4.32c-5.07,0-9.23-2.27-9.23-7.83,0-6.32,4.7-7.67,9.45-8.59,5.08-1,9.4-.65,9.4-4.1,0-4-3.3-4.65-6.21-4.65-3.89,0-6.75,1.19-7,5.29h-4.59c.27-6.91,5.62-9.34,11.83-9.34,5,0,10.47,1.14,10.47,7.67v14.36c0,2.16,0,3.14,1.46,3.14a4,4,0,0,0,1.4-.27Zm-7.45-14.31c-1.78,1.3-5.24,1.35-8.31,1.89s-5.62,1.62-5.62,5c0,3,2.59,4.11,5.4,4.11,6,0,8.53-3.78,8.53-6.32Z" transform="translate(-14.17 -14.17)"/><path class="cls-1" d="M259.53,152.16h-4.59v-3.78h-.11c-1.51,3.08-5.08,4.43-8.91,4.43-8.59,0-12.85-6.81-12.85-14.69s4.21-14.53,12.74-14.53c2.86,0,7,1.08,9,4.38h.11V113.6h4.59Zm-13-3.4c6.15,0,8.53-5.3,8.53-10.53,0-5.51-2.48-10.59-8.8-10.59s-8.37,5.35-8.37,10.8C237.93,143.68,240.63,148.76,246.57,148.76Z" transform="translate(-14.17 -14.17)"/><path class="cls-1" d="M271.46,119.22h-4.59V113.6h4.59Zm-4.59,5h4.59v27.92h-4.59Z" transform="translate(-14.17 -14.17)"/><path class="cls-1" d="M278.59,124.24h4.32v4.43H283a9.7,9.7,0,0,1,9.07-5.08c7.34,0,9.61,4.21,9.61,10.21v18.36h-4.59v-18.9a5.26,5.26,0,0,0-5.67-5.62c-5.56,0-8.26,3.73-8.26,8.75v15.77h-4.59Z" transform="translate(-14.17 -14.17)"/><path class="cls-1" d="M332.7,149.78c0,9.07-4.16,13.72-13,13.72-5.24,0-11.29-2.11-11.56-8.21h4.59c.22,3.35,4.21,4.54,7.24,4.54,6,0,8.37-4.32,8.37-10.59v-1.83h-.11c-1.51,3.4-5.18,5.07-8.69,5.07-8.32,0-12.48-6.53-12.48-14.15,0-6.58,3.24-14.74,12.91-14.74a9.1,9.1,0,0,1,8.31,4.65h.06v-4h4.32Zm-4.54-12.15c0-4.91-2.16-10-7.94-10S312,132.45,312,137.79c0,5,1.84,10.64,7.89,10.64S328.16,142.87,328.16,137.63Z" transform="translate(-14.17 -14.17)"/><polygon class="cls-1" points="55.01 17.52 55.01 0 0 0 0 169.72 55.01 169.72 55.01 152.2 17.52 152.2 17.52 17.52 55.01 17.52"/><polygon class="cls-1" points="412.43 0 412.43 17.52 449.92 17.52 449.92 152.2 412.43 152.2 412.43 169.72 467.44 169.72 467.44 0 412.43 0"/><path class="cls-2" d="M80.65,83.42a8.09,8.09,0,0,0,.48,2.85c1,2.6,3.88,3.14,6.36,3.14,2.17,0,5.5-.72,5.5-3.93,0-2.24-1.87-2.84-9.32-5C76.84,78.58,69,76.71,69,68c0-10,8.53-14.27,17.43-14.27,9.38,0,17.66,3.57,18,14.09H91.9a3.31,3.31,0,0,0-1.57-3.45,6.94,6.94,0,0,0-3.93-1.08c-1.82,0-4.78.48-4.78,2.9.24,3.09,6.41,3.75,12.52,5.45s12.16,4.53,12.16,12.46C106.3,95.34,96,99,86.34,99c-4.9,0-18.88-1.75-19-15.55Z" transform="translate(-14.17 -14.17)"/><path class="cls-2" d="M142.9,97.94H131.35V94h-.12C129,97.1,125.78,98.73,121,98.73c-5.62,0-10.77-3.45-10.77-10.65V66.54h12V83c0,3.63.43,6.17,3.94,6.17,2,0,4.77-1,4.77-6V66.54h12Z" transform="translate(-14.17 -14.17)"/><path class="cls-2" d="M149.44,66.54h11.49v5h.12c1.94-3.75,4.48-5.8,8.84-5.8a13.76,13.76,0,0,1,3.51.48V76.83a12,12,0,0,0-4.72-.79c-4.72,0-7.26,2.78-7.26,9.5v12.4h-12Z" transform="translate(-14.17 -14.17)"/><path class="cls-2" d="M176.3,66.54h11.49v5h.12c1.94-3.75,4.48-5.8,8.84-5.8a13.76,13.76,0,0,1,3.51.48V76.83a12,12,0,0,0-4.72-.79c-4.72,0-7.26,2.78-7.26,9.5v12.4h-12Z" transform="translate(-14.17 -14.17)"/><path class="cls-2" d="M212.17,84.94c.31,3.56,2.36,6.11,6.12,6.11,1.93,0,4.05-.73,5-2.24H234.5c-2.42,6.77-9,9.92-16.15,9.92-10,0-17.61-5.93-17.61-16.4,0-9.13,6.66-16.57,16.58-16.57,12.46,0,17.85,6.95,17.85,19.18Zm11.5-6.24a5.15,5.15,0,0,0-5.26-5.26c-3.57,0-5.63,1.87-6.17,5.26Z" transform="translate(-14.17 -14.17)"/><path class="cls-2" d="M260.7,95.52c-1,2.79-2.06,6.36-3.94,8.71-3.14,3.94-8,3.88-12.64,3.88h-5.45V98.55h2.79a9.91,9.91,0,0,0,3.63-.3c.72-.37,1.15-1,1.15-2.36S241.64,82.82,241,81l-5.32-14.46h12.82l5,18h.12l5.08-18h12.4Z" transform="translate(-14.17 -14.17)"/><path class="cls-2" d="M288.16,83.42a7.86,7.86,0,0,0,.49,2.85c1,2.6,3.87,3.14,6.35,3.14,2.18,0,5.5-.72,5.5-3.93,0-2.24-1.87-2.84-9.31-5-6.84-1.94-14.64-3.81-14.64-12.53,0-10,8.53-14.27,17.42-14.27,9.38,0,17.67,3.57,18,14.09H299.42a3.32,3.32,0,0,0-1.58-3.45,6.94,6.94,0,0,0-3.93-1.08c-1.82,0-4.78.48-4.78,2.9.24,3.09,6.41,3.75,12.52,5.45s12.16,4.53,12.16,12.46c0,11.25-10.34,14.88-20,14.88-4.9,0-18.88-1.75-19-15.55Z" transform="translate(-14.17 -14.17)"/><path class="cls-2" d="M331.9,66.54h6.42v7.38H331.9v11c0,2.91.67,4.18,3.69,4.18a20.86,20.86,0,0,0,2.73-.18v9.07c-2.42,0-5.15.37-7.69.37-5.08,0-10.71-.79-10.71-9.38v-15H314.6V66.54h5.32V57h12Z" transform="translate(-14.17 -14.17)"/><path class="cls-2" d="M351.75,84.94c.3,3.56,2.36,6.11,6.11,6.11,1.93,0,4.05-.73,5-2.24h11.19c-2.42,6.77-9,9.92-16.15,9.92-10,0-17.61-5.93-17.61-16.4,0-9.13,6.66-16.57,16.58-16.57,12.46,0,17.85,6.95,17.85,19.18Zm11.49-6.24A5.15,5.15,0,0,0,358,73.44c-3.57,0-5.63,1.87-6.17,5.26Z" transform="translate(-14.17 -14.17)"/><path class="cls-2" d="M388.41,84.94c.3,3.56,2.36,6.11,6.11,6.11,1.94,0,4.05-.73,5-2.24h11.19c-2.42,6.77-9,9.92-16.15,9.92-10,0-17.61-5.93-17.61-16.4,0-9.13,6.66-16.57,16.58-16.57,12.47,0,17.85,6.95,17.85,19.18Zm11.5-6.24a5.16,5.16,0,0,0-5.27-5.26c-3.57,0-5.63,1.87-6.17,5.26Z" transform="translate(-14.17 -14.17)"/><path class="cls-2" d="M415.21,54.75h12V97.94h-12Z" transform="translate(-14.17 -14.17)"/></svg>